<svg xmlns="http://www.w3.org/2000/svg" xmlns:xlink="http://www.w3.org/1999/xlink" width="200" zoomAndPan="magnify" viewBox="0 0 150 74.999997" height="100" preserveAspectRatio="xMidYMid meet" version="1.0"><defs><g/></defs><g fill="#000000" fill-opacity="1"><g transform="translate(7.50759, 44.161026)"><g><path d="M 23.453125 -5.328125 L 2.296875 -14.625 L 2.296875 -16.78125 L 23.453125 -27.328125 L 23.453125 -24.046875 L 6.234375 -15.875 L 23.453125 -8.65625 Z M 23.453125 -5.328125 "/></g></g></g><g fill="#000000" fill-opacity="1"><g transform="translate(33.297878, 44.161026)"><g><path d="M 16.09375 -32.203125 L 4.09375 0 L 0.4375 0 L 12.4375 -32.203125 Z M 16.09375 -32.203125 "/></g></g></g><g fill="#000000" fill-opacity="1"><g transform="translate(49.860041, 44.161026)"><g><path d="M 20.3125 6.9375 L -0.09375 6.9375 L -0.09375 4.046875 L 20.3125 4.046875 Z M 20.3125 6.9375 "/></g></g></g><g fill="#000000" fill-opacity="1"><g transform="translate(70.078213, 44.161026)"><g><path d="M 20.3125 6.9375 L -0.09375 6.9375 L -0.09375 4.046875 L 20.3125 4.046875 Z M 20.3125 6.9375 "/></g></g></g><g fill="#ffffff" fill-opacity="1"><g transform="translate(48.913837, 39.079648)"><g><path d="M 11.859375 -22.421875 C 10.628906 -22.421875 9.742188 -22.238281 9.203125 -21.875 C 8.671875 -21.519531 8.40625 -20.773438 8.40625 -19.640625 L 8.40625 -11.828125 C 10.550781 -13.597656 12.582031 -15.410156 14.5 -17.265625 C 16.425781 -19.117188 17.390625 -20.492188 17.390625 -21.390625 C 17.390625 -21.765625 17.21875 -22.023438 16.875 -22.171875 C 16.53125 -22.316406 16.019531 -22.398438 15.34375 -22.421875 L 15.34375 -23.03125 L 23.796875 -23.03125 L 23.796875 -22.421875 L 23.53125 -22.421875 C 22.851562 -22.378906 22.210938 -22.210938 21.609375 -21.921875 C 21.015625 -21.628906 20.40625 -21.191406 19.78125 -20.609375 C 19.414062 -20.273438 18.785156 -19.640625 17.890625 -18.703125 C 16.773438 -17.566406 15.789062 -16.578125 14.9375 -15.734375 C 14.09375 -14.898438 13.066406 -13.957031 11.859375 -12.90625 L 20.484375 -4.390625 C 21.597656 -3.296875 22.5 -2.484375 23.1875 -1.953125 C 23.882812 -1.429688 24.539062 -1.078125 25.15625 -0.890625 C 25.769531 -0.703125 26.523438 -0.609375 27.421875 -0.609375 L 27.421875 0 L 15.546875 0 L 15.546875 -0.609375 C 16.148438 -0.609375 16.632812 -0.703125 17 -0.890625 C 17.375 -1.078125 17.5625 -1.375 17.5625 -1.78125 C 17.5625 -2.039062 17.488281 -2.269531 17.34375 -2.46875 C 17.195312 -2.675781 16.910156 -2.992188 16.484375 -3.421875 L 8.40625 -11.390625 L 8.40625 -3.359375 C 8.40625 -2.347656 8.65625 -1.640625 9.15625 -1.234375 C 9.664062 -0.835938 10.515625 -0.628906 11.703125 -0.609375 L 11.703125 0 L 1.34375 0 L 1.34375 -0.609375 C 2.632812 -0.628906 3.53125 -0.828125 4.03125 -1.203125 C 4.539062 -1.585938 4.796875 -2.328125 4.796875 -3.421875 L 4.796875 -19.640625 C 4.796875 -20.734375 4.519531 -21.46875 3.96875 -21.84375 C 3.425781 -22.226562 2.550781 -22.421875 1.34375 -22.421875 L 1.34375 -23.03125 L 11.859375 -23.03125 Z M 11.859375 -22.421875 "/></g></g></g><g fill="#ffffff" fill-opacity="1"><g transform="translate(76.497198, 39.079648)"><g><path d="M 9.546875 -15.921875 C 10.867188 -15.921875 12.101562 -15.566406 13.25 -14.859375 C 14.40625 -14.160156 15.320312 -13.222656 16 -12.046875 C 16.6875 -10.878906 17.03125 -9.625 17.03125 -8.28125 C 17.03125 -6.71875 16.660156 -5.265625 15.921875 -3.921875 C 15.179688 -2.578125 14.191406 -1.507812 12.953125 -0.71875 C 11.710938 0.0703125 10.390625 0.46875 8.984375 0.46875 C 7.640625 0.46875 6.390625 0.117188 5.234375 -0.578125 C 4.085938 -1.285156 3.179688 -2.238281 2.515625 -3.4375 C 1.847656 -4.632812 1.515625 -5.9375 1.515625 -7.34375 C 1.515625 -8.863281 1.878906 -10.28125 2.609375 -11.59375 C 3.347656 -12.914062 4.335938 -13.96875 5.578125 -14.75 C 6.816406 -15.53125 8.140625 -15.921875 9.546875 -15.921875 Z M 4.53125 -8.6875 C 4.53125 -7.363281 4.734375 -6.09375 5.140625 -4.875 C 5.554688 -3.65625 6.15625 -2.65625 6.9375 -1.875 C 7.71875 -1.09375 8.65625 -0.703125 9.75 -0.703125 C 11.019531 -0.703125 12.046875 -1.265625 12.828125 -2.390625 C 13.617188 -3.523438 14.015625 -5.019531 14.015625 -6.875 C 14.015625 -8.34375 13.789062 -9.675781 13.34375 -10.875 C 12.894531 -12.070312 12.265625 -13.015625 11.453125 -13.703125 C 10.648438 -14.398438 9.738281 -14.75 8.71875 -14.75 C 7.4375 -14.75 6.414062 -14.203125 5.65625 -13.109375 C 4.90625 -12.015625 4.53125 -10.539062 4.53125 -8.6875 Z M 4.53125 -8.6875 "/></g></g></g><g fill="#ffffff" fill-opacity="1"><g transform="translate(95.003677, 39.079648)"><g><path d="M 8.984375 -23.53125 C 10.035156 -23.53125 10.941406 -23.421875 11.703125 -23.203125 C 12.460938 -22.992188 13.296875 -22.703125 14.203125 -22.328125 C 14.523438 -22.191406 14.828125 -22.070312 15.109375 -21.96875 C 15.398438 -21.863281 15.648438 -21.8125 15.859375 -21.8125 C 16.210938 -21.8125 16.5 -21.957031 16.71875 -22.25 C 16.945312 -22.539062 17.0625 -22.96875 17.0625 -23.53125 L 17.703125 -23.53125 L 17.703125 -16.09375 L 17.0625 -16.09375 C 16.832031 -17.269531 16.347656 -18.328125 15.609375 -19.265625 C 14.878906 -20.203125 13.96875 -20.925781 12.875 -21.4375 C 11.78125 -21.957031 10.601562 -22.21875 9.34375 -22.21875 C 7.988281 -22.21875 6.875 -21.890625 6 -21.234375 C 5.125 -20.578125 4.6875 -19.753906 4.6875 -18.765625 C 4.6875 -18.023438 4.941406 -17.398438 5.453125 -16.890625 C 5.972656 -16.378906 6.617188 -15.953125 7.390625 -15.609375 C 8.160156 -15.273438 9.226562 -14.882812 10.59375 -14.4375 C 11.957031 -14 13.097656 -13.585938 14.015625 -13.203125 C 14.929688 -12.828125 15.734375 -12.359375 16.421875 -11.796875 C 17.203125 -11.148438 17.84375 -10.378906 18.34375 -9.484375 C 18.851562 -8.585938 19.109375 -7.582031 19.109375 -6.46875 C 19.109375 -5.101562 18.738281 -3.894531 18 -2.84375 C 17.257812 -1.800781 16.222656 -0.988281 14.890625 -0.40625 C 13.566406 0.175781 12.035156 0.46875 10.296875 0.46875 C 9.191406 0.46875 8.265625 0.375 7.515625 0.1875 C 6.773438 0 6.015625 -0.25 5.234375 -0.5625 C 4.492188 -0.875 3.945312 -1.03125 3.59375 -1.03125 C 3.1875 -1.03125 2.835938 -0.90625 2.546875 -0.65625 C 2.253906 -0.414062 2 -0.0390625 1.78125 0.46875 L 1.140625 0.46875 L 1.140625 -7.984375 L 1.78125 -7.984375 C 2.175781 -5.742188 3.128906 -3.96875 4.640625 -2.65625 C 6.148438 -1.351562 7.976562 -0.703125 10.125 -0.703125 C 11.726562 -0.703125 13 -1.03125 13.9375 -1.6875 C 14.875 -2.351562 15.34375 -3.242188 15.34375 -4.359375 C 15.34375 -5.234375 15.066406 -5.96875 14.515625 -6.5625 C 13.972656 -7.164062 13.296875 -7.65625 12.484375 -8.03125 C 11.671875 -8.414062 10.570312 -8.84375 9.1875 -9.3125 C 7.46875 -9.914062 6.078125 -10.476562 5.015625 -11 C 3.953125 -11.53125 3.046875 -12.269531 2.296875 -13.21875 C 1.546875 -14.164062 1.171875 -15.367188 1.171875 -16.828125 C 1.171875 -18.097656 1.503906 -19.238281 2.171875 -20.25 C 2.847656 -21.269531 3.773438 -22.070312 4.953125 -22.65625 C 6.140625 -23.238281 7.484375 -23.53125 8.984375 -23.53125 Z M 8.984375 -23.53125 "/></g></g></g><g fill="#ffffff" fill-opacity="1"><g transform="translate(115.247118, 39.079648)"><g><path d="M 8.75 -14.953125 C 8.207031 -14.929688 7.816406 -14.847656 7.578125 -14.703125 C 7.347656 -14.554688 7.234375 -14.3125 7.234375 -13.96875 C 7.234375 -13.5 7.398438 -12.875 7.734375 -12.09375 L 10.421875 -5.625 L 12.171875 -10.65625 C 12.640625 -12.019531 12.875 -12.957031 12.875 -13.46875 C 12.875 -14.457031 12.28125 -14.953125 11.09375 -14.953125 L 11.09375 -15.546875 L 16.1875 -15.546875 L 16.1875 -14.953125 C 15.601562 -14.953125 15.113281 -14.675781 14.71875 -14.125 C 14.332031 -13.582031 13.90625 -12.628906 13.4375 -11.265625 L 8.71875 2.25 C 8.09375 4.050781 7.425781 5.3125 6.71875 6.03125 C 6.019531 6.75 5.144531 7.109375 4.09375 7.109375 C 3.21875 7.109375 2.507812 6.859375 1.96875 6.359375 C 1.4375 5.867188 1.171875 5.242188 1.171875 4.484375 C 1.171875 3.859375 1.367188 3.328125 1.765625 2.890625 C 2.171875 2.460938 2.664062 2.25 3.25 2.25 C 4.007812 2.25 4.535156 2.59375 4.828125 3.28125 C 4.941406 3.570312 5 3.941406 5 4.390625 C 5.019531 4.722656 5.0625 4.972656 5.125 5.140625 C 5.195312 5.304688 5.34375 5.390625 5.5625 5.390625 C 6.007812 5.390625 6.429688 5.023438 6.828125 4.296875 C 7.234375 3.578125 7.707031 2.378906 8.25 0.703125 L 3.109375 -11.703125 C 2.640625 -12.816406 2.238281 -13.601562 1.90625 -14.0625 C 1.570312 -14.519531 1.125 -14.816406 0.5625 -14.953125 L 0.5625 -15.546875 L 8.75 -15.546875 Z M 8.75 -14.953125 "/></g></g></g><g fill="#ffffff" fill-opacity="1"><g transform="translate(132.00493, 39.079648)"><g><path d="M 5.5625 -15.921875 C 6.125 -15.921875 6.609375 -15.863281 7.015625 -15.75 C 7.429688 -15.632812 7.929688 -15.46875 8.515625 -15.25 C 8.960938 -15.050781 9.273438 -14.953125 9.453125 -14.953125 C 9.722656 -14.953125 9.953125 -15.03125 10.140625 -15.1875 C 10.328125 -15.34375 10.535156 -15.585938 10.765625 -15.921875 L 11.125 -15.921875 L 11.390625 -10.65625 L 11 -10.65625 C 10.5 -11.925781 9.785156 -12.925781 8.859375 -13.65625 C 7.929688 -14.382812 6.921875 -14.75 5.828125 -14.75 C 5.179688 -14.75 4.671875 -14.597656 4.296875 -14.296875 C 3.929688 -13.992188 3.75 -13.609375 3.75 -13.140625 C 3.75 -12.554688 4.019531 -12.0625 4.5625 -11.65625 C 5.113281 -11.257812 5.953125 -10.804688 7.078125 -10.296875 C 8.191406 -9.773438 9.09375 -9.289062 9.78125 -8.84375 C 10.476562 -8.394531 11.078125 -7.816406 11.578125 -7.109375 C 12.078125 -6.410156 12.328125 -5.5625 12.328125 -4.5625 C 12.328125 -3.625 12.09375 -2.769531 11.625 -2 C 11.15625 -1.226562 10.507812 -0.625 9.6875 -0.1875 C 8.863281 0.25 7.945312 0.46875 6.9375 0.46875 C 6.3125 0.46875 5.742188 0.398438 5.234375 0.265625 C 4.734375 0.128906 4.21875 -0.046875 3.6875 -0.265625 C 3.625 -0.285156 3.457031 -0.347656 3.1875 -0.453125 C 2.914062 -0.554688 2.691406 -0.609375 2.515625 -0.609375 C 2.109375 -0.609375 1.757812 -0.257812 1.46875 0.4375 L 1.171875 0.4375 L 0.796875 -5.09375 L 1.171875 -5.09375 C 1.753906 -3.6875 2.515625 -2.601562 3.453125 -1.84375 C 4.390625 -1.082031 5.414062 -0.703125 6.53125 -0.703125 C 7.226562 -0.703125 7.804688 -0.890625 8.265625 -1.265625 C 8.722656 -1.648438 8.953125 -2.125 8.953125 -2.6875 C 8.953125 -3.238281 8.773438 -3.675781 8.421875 -4 C 8.078125 -4.320312 7.535156 -4.6875 6.796875 -5.09375 C 6.484375 -5.269531 6.191406 -5.421875 5.921875 -5.546875 C 5.660156 -5.671875 5.441406 -5.773438 5.265625 -5.859375 C 4.234375 -6.359375 3.414062 -6.800781 2.8125 -7.1875 C 2.207031 -7.582031 1.6875 -8.101562 1.25 -8.75 C 0.820312 -9.394531 0.609375 -10.195312 0.609375 -11.15625 C 0.609375 -12.519531 1.070312 -13.65625 2 -14.5625 C 2.925781 -15.46875 4.113281 -15.921875 5.5625 -15.921875 Z M 5.5625 -15.921875 "/></g></g></g></svg>